<svg width="601" height="500" viewBox="0 0 601 500" fill="none" xmlns="http://www.w3.org/2000/svg">
<g clip-path="url(#clip0_71_211)">
<mask id="mask0_71_211" style="mask-type:luminance" maskUnits="userSpaceOnUse" x="0" y="0" width="600" height="301">
<path d="M576.461 300.282C589.771 300.282 600.664 289.471 599.597 276.203C593.903 205.377 563.224 138.561 512.613 87.9505C456.3 31.6367 379.921 6.01262e-06 300.282 0C220.643 -6.01262e-06 144.265 31.6367 87.9509 87.9505C37.3404 138.561 6.66162 205.377 0.96667 276.203C-0.100255 289.471 10.7916 300.282 24.1032 300.282H300.282H576.461Z" fill="white"/>
</mask>
<g mask="url(#mask0_71_211)">
<path d="M576.461 300.282C589.771 300.282 600.664 289.471 599.597 276.203C593.903 205.377 563.224 138.561 512.613 87.9505C456.3 31.6367 379.921 6.01262e-06 300.282 0C220.643 -6.01262e-06 144.265 31.6367 87.9509 87.9505C37.3404 138.561 6.66162 205.377 0.96667 276.203C-0.100255 289.471 10.7916 300.282 24.1032 300.282H300.282H576.461Z" fill="url(#paint0_linear_71_211)" stroke="url(#paint1_linear_71_211)" stroke-width="6.02571"/>
</g>
</g>
<path d="M531.741 404.594C540.615 404.594 547.809 411.787 547.809 420.662C547.809 429.536 540.615 436.73 531.741 436.73H297.994C289.398 436.73 282.428 443.699 282.428 452.296V452.296C282.428 460.893 289.398 467.862 297.994 467.862H373.896C382.771 467.862 389.966 475.056 389.966 483.93C389.966 492.805 382.771 499.999 373.896 499.999H164.592C155.717 499.999 148.523 492.805 148.523 483.93C148.523 475.056 155.717 467.862 164.592 467.862H175.562C184.159 467.862 191.128 460.893 191.128 452.296V452.296C191.128 443.699 184.159 436.73 175.562 436.73H107.369C98.4947 436.73 91.3006 429.536 91.3006 420.662C91.3006 411.788 98.4946 404.594 107.369 404.594H334.917C343.792 404.594 350.986 397.399 350.986 388.525V388.525C350.986 379.65 343.792 372.456 334.917 372.456H16.0681C7.19384 372.456 -0.000213623 365.262 -0.000213623 356.387C-9.61055e-05 347.513 7.19389 340.319 16.0681 340.319H584.494C593.368 340.319 600.563 347.513 600.563 356.387C600.563 365.262 593.368 372.456 584.494 372.456H466.472C457.597 372.456 450.403 379.65 450.403 388.525V388.525C450.403 397.399 457.597 404.594 466.472 404.594H531.741Z" fill="#32A1FF"/>
<defs>
<linearGradient id="paint0_linear_71_211" x1="300.282" y1="0" x2="300.282" y2="313.84" gradientUnits="userSpaceOnUse">
<stop stop-color="white"/>
<stop offset="0.162527" stop-color="#BFDBFF"/>
<stop offset="0.5" stop-color="#80B7FF"/>
<stop offset="1" stop-color="#7883FF"/>
</linearGradient>
<linearGradient id="paint1_linear_71_211" x1="300.282" y1="0" x2="300.282" y2="193.325" gradientUnits="userSpaceOnUse">
<stop stop-color="white"/>
<stop offset="1" stop-color="white" stop-opacity="0"/>
</linearGradient>
<clipPath id="clip0_71_211">
<rect width="600.563" height="300.282" fill="white"/>
</clipPath>
</defs>
</svg>
