<svg width="114" height="31" viewBox="0 0 114 31" fill="none" xmlns="http://www.w3.org/2000/svg">
<path d="M3.04391 28.2195V14.0577C3.04391 8.32751 7.68917 3.68225 13.4194 3.68225V3.68225" stroke="#006FFF" stroke-width="5.46272" stroke-linecap="round" stroke-linejoin="round"/>
<path d="M98.9551 1C100.464 1.00005 101.687 2.22299 101.687 3.73145V13.2686H111.225C112.733 13.2688 113.956 14.4917 113.956 16C113.956 17.5081 112.733 18.7312 111.225 18.7314H101.687V28.2686C101.687 29.777 100.464 31 98.9551 31C97.4467 31 96.2237 29.777 96.2237 28.2686V18.7314H86.6876C85.1792 18.7314 83.9563 17.5083 83.9561 16C83.9561 14.4915 85.1791 13.2686 86.6876 13.2686H96.2237V3.73145C96.2237 2.22296 97.4467 1 98.9551 1Z" fill="#006FFF"/>
<path d="M23.4999 8.47461C25.0083 8.47466 26.2313 9.6976 26.2313 11.2061V27.6787C26.2311 29.187 25.0082 30.4101 23.4999 30.4102C21.9915 30.4102 20.7686 29.187 20.7684 27.6787V11.2061C20.7684 9.69757 21.9914 8.47461 23.4999 8.47461ZM23.4999 1.00001C25.0082 0.997017 26.2311 2.21729 26.2313 3.72559V3.92188C26.2313 5.43034 25.0083 6.65612 23.4999 6.65918C21.9915 6.66221 20.7686 5.44191 20.7684 3.9336V3.73731C20.7684 2.22882 21.9914 1.00303 23.4999 1.00001Z" fill="#006FFF"/>
<path d="M32.5019 27.8753L38.0681 27.8753C44.5558 27.8753 47.457 19.7341 42.4313 15.6312V15.6312C37.4057 11.5284 40.3069 3.38721 46.7946 3.38721L50.2954 3.38721" stroke="#006FFF" stroke-width="5.46272" stroke-linecap="round"/>
<path d="M57.1341 18.1497V18.1497C57.1341 23.4124 61.4003 27.6786 66.6629 27.6786L73.3541 27.6786M57.1341 18.1497L70.0384 18.1497C73.6659 18.1497 76.6065 15.2091 76.6065 11.5816V11.5816C76.6065 7.95409 73.6658 5.01343 70.0384 5.01343L66.8703 5.01344C61.4931 5.01344 57.1341 9.37249 57.1341 14.7497L57.1341 18.1497Z" stroke="#006FFF" stroke-width="5.46272" stroke-miterlimit="8.2289" stroke-linecap="round" stroke-linejoin="round"/>
</svg>
